<?xml version="1.0" standalone="no"?>
<!DOCTYPE svg PUBLIC "-//W3C//DTD SVG 20010904//EN"
 "http://www.w3.org/TR/2001/REC-SVG-20010904/DTD/svg10.dtd">
<svg version="1.0" xmlns="http://www.w3.org/2000/svg"
 width="512.000000pt" height="512.000000pt" viewBox="0 0 512.000000 512.000000"
 preserveAspectRatio="xMidYMid meet">

<g transform="translate(0.000000,512.000000) scale(0.100000,-0.100000)"
fill="#000000" stroke="none">
<path d="M2370 5114 c-19 -2 -78 -9 -130 -15 -791 -90 -1522 -586 -1924 -1305
-146 -262 -252 -588 -297 -914 -18 -125 -18 -515 0 -640 80 -582 327 -1083
732 -1489 803 -802 2032 -981 3029 -441 228 124 280 175 280 278 0 68 -18 109
-68 154 -77 70 -159 66 -289 -15 -550 -340 -1200 -418 -1813 -217 -656 214
-1165 723 -1379 1376 -148 452 -148 896 0 1348 214 653 723 1162 1378 1376
449 147 894 147 1345 -1 647 -212 1156 -718 1372 -1365 197 -589 137 -1204
-172 -1757 -62 -110 -68 -128 -68 -177 0 -113 87 -200 201 -200 41 0 100 24
131 52 54 51 212 364 276 547 327 933 93 1961 -605 2660 -399 398 -879 639
-1449 726 -100 15 -472 28 -550 19z"/>
<path d="M2490 3718 c-34 -12 -137 -113 -706 -698 -143 -147 -152 -159 -164
-210 -17 -78 -1 -132 55 -186 71 -69 168 -79 246 -27 15 10 118 112 230 227
l204 209 5 -756 5 -755 30 -43 c81 -114 249 -114 330 0 l30 43 5 755 5 756
204 -209 c112 -115 215 -217 230 -227 109 -72 260 -17 297 109 17 58 13 97
-15 150 -23 45 -785 825 -828 848 -43 23 -115 29 -163 14z"/>
</g>
</svg>
