<?xml version="1.0" standalone="no"?>
<!DOCTYPE svg PUBLIC "-//W3C//DTD SVG 20010904//EN"
 "http://www.w3.org/TR/2001/REC-SVG-20010904/DTD/svg10.dtd">
<svg version="1.0" xmlns="http://www.w3.org/2000/svg"
 width="512.000000pt" height="512.000000pt" viewBox="0 0 512.000000 512.000000"
 preserveAspectRatio="xMidYMid meet">

<g transform="translate(0.000000,512.000000) scale(0.100000,-0.100000)"
fill="#000000" stroke="none">
<path d="M1311 4670 c-146 -39 -256 -105 -361 -217 -79 -84 -131 -171 -168
-278 l-27 -80 -3 -668 -3 -669 -88 -86 c-120 -119 -194 -252 -220 -396 -7 -40
-11 -348 -11 -928 0 -835 1 -870 19 -906 25 -48 66 -87 113 -106 48 -21 506
-23 572 -4 53 16 118 81 134 134 7 26 12 106 12 213 l0 171 1280 0 1280 0 0
-172 c0 -95 5 -190 11 -212 14 -50 82 -118 135 -134 66 -19 524 -17 572 4 49
20 90 60 113 109 18 38 19 84 19 910 0 989 3 945 -81 1114 -45 91 -63 116
-145 197 l-93 93 -3 668 -3 668 -27 80 c-40 118 -92 200 -188 295 -95 96 -177
148 -295 188 l-80 27 -1195 2 c-1155 2 -1197 1 -1269 -17z m2421 -201 c204
-42 381 -221 417 -423 9 -51 17 -1196 8 -1196 -1 0 -34 7 -72 15 -48 10 -131
15 -261 15 l-191 0 -6 153 c-3 101 -11 170 -22 207 -55 179 -188 311 -370 367
-55 17 -106 18 -675 18 -569 0 -620 -1 -675 -18 -93 -29 -167 -73 -231 -137
-118 -119 -154 -215 -161 -437 l-6 -153 -191 0 c-130 0 -213 -5 -261 -15 -38
-8 -71 -15 -72 -15 -2 0 -3 260 -3 578 0 636 1 650 62 766 42 78 146 183 224
224 120 63 70 60 1306 61 782 1 1143 -2 1180 -10z m-532 -1076 c65 -21 142
-89 178 -157 25 -48 27 -61 30 -203 l4 -153 -851 0 -851 0 0 138 c0 176 12
214 95 297 98 98 59 93 746 94 533 1 602 -1 649 -16z m825 -733 c86 -13 211
-71 277 -129 58 -52 115 -137 147 -221 24 -62 25 -76 29 -332 l4 -268 -1922 0
-1922 0 4 268 c4 256 5 270 29 332 32 84 89 169 147 221 60 53 194 117 269
128 84 12 2852 13 2938 1z m455 -1380 l0 -210 -1920 0 -1920 0 0 210 0 210
1920 0 1920 0 0 -210z m-3412 -587 l-3 -158 -212 -3 -213 -2 0 160 0 160 215
0 216 0 -3 -157z m3412 -3 l0 -160 -212 2 -213 3 -3 158 -3 157 216 0 215 0 0
-160z"/>
</g>
</svg>
