<svg version="1.1" id="Layer_1" xmlns="http://www.w3.org/2000/svg" xmlns:xlink="http://www.w3.org/1999/xlink" x="0px" y="0px"
	 width="100%" viewBox="0 0 512 512" enable-background="new 0 0 512 512" xml:space="preserve">
<path fill="#FFD800" opacity="1.000000" stroke="none" 
	d="
M513.000000,199.000000 
	C513.000000,203.356903 513.000000,207.713806 512.719421,212.202881 
	C509.564545,216.767868 507.187073,221.650787 503.685638,225.515350 
	C499.644257,229.975830 494.568848,233.489685 490.018463,237.500824 
	C481.010406,245.441406 472.116241,253.512009 463.062012,261.399231 
	C451.187927,271.742798 439.178986,281.931335 427.276062,292.242065 
	C416.723755,301.382782 406.265808,310.632538 395.701508,319.759247 
	C393.029694,322.067474 391.195068,324.520325 392.067902,328.289856 
	C397.394104,351.292145 402.763367,374.284790 407.985626,397.310760 
	C413.425659,421.296967 418.636688,445.335236 424.111542,469.313354 
	C426.206085,478.486725 422.876495,490.665497 415.961670,495.447968 
	C403.678741,503.943237 396.309753,504.360992 385.513611,498.609314 
	C371.249359,491.009949 357.582214,482.282898 343.715546,473.945557 
	C315.691223,457.095886 287.727814,440.144409 259.635834,423.408569 
	C258.264252,422.591461 255.510330,422.757965 254.066879,423.604004 
	C238.846313,432.525238 223.761551,441.678162 208.639160,450.766876 
	C189.499893,462.269745 170.434982,473.899017 151.189316,485.221039 
	C141.745789,490.776581 132.444183,497.119202 122.235641,500.709564 
	C103.626419,507.254425 85.837166,489.250854 89.271622,470.851593 
	C93.157303,450.035065 98.296837,429.447906 103.080444,408.804840 
	C108.920258,383.603851 115.079781,358.476288 120.793182,333.247284 
	C121.799706,328.802734 123.931221,324.007416 118.551208,319.819733 
	C110.138397,313.271393 102.369576,305.894226 94.347847,298.845520 
	C88.542435,293.744293 82.809776,288.559662 76.973351,283.494415 
	C64.829102,272.954834 52.631104,262.477203 40.467758,251.959595 
	C32.893318,245.409973 25.126122,239.062469 17.848248,232.197235 
	C12.015396,226.695084 4.738799,222.197327 2.713291,213.517700 
	C2.645607,213.227661 1.593327,213.167389 0.999999,213.000000 
	C1.000000,208.643097 1.000000,204.286194 1.384109,199.458221 
	C2.171203,198.584061 2.771904,198.252670 2.947970,197.767258 
	C6.414930,188.208801 12.686630,181.649231 22.985584,180.039230 
	C29.917253,178.955627 36.969109,178.651169 43.962021,177.946762 
	C56.824005,176.651154 69.673744,175.226959 82.544823,174.030991 
	C91.541008,173.195099 100.577721,172.792465 109.572075,171.940308 
	C122.111305,170.752289 134.620407,169.248596 147.156769,168.027374 
	C155.485596,167.216049 163.843964,166.709641 172.176163,165.928589 
	C173.136841,165.838547 174.505844,165.073959 174.856613,164.263412 
	C179.984634,152.413605 184.962296,140.498825 189.994461,128.607437 
	C197.102631,111.810265 204.220047,95.017014 211.345062,78.226990 
	C217.902206,62.775158 224.484253,47.333874 231.036850,31.880104 
	C235.197479,22.067535 241.484726,14.423203 252.703201,13.089519 
	C265.978760,11.511286 276.087982,16.577108 281.582947,29.171925 
	C287.327240,42.338112 292.756042,55.641556 298.400726,68.851662 
	C311.912048,100.471962 325.456360,132.078217 339.068237,163.655273 
	C339.488342,164.629868 340.731598,165.770676 341.709717,165.894089 
	C346.103302,166.448547 350.540314,166.656113 354.960693,167.001434 
	C363.638885,167.679382 372.326263,168.260498 380.991882,169.073227 
	C394.026947,170.295776 407.039215,171.762024 420.075317,172.972458 
	C428.906494,173.792465 437.774750,174.216431 446.603363,175.059280 
	C459.140900,176.256195 471.630066,178.150681 484.190094,178.868820 
	C497.311951,179.619110 506.350677,185.262970 511.061798,197.642044 
	C511.294037,198.252197 512.335388,198.554398 513.000000,199.000000 
z"/>
</svg>