<?xml version="1.0" standalone="no"?>
<!DOCTYPE svg PUBLIC "-//W3C//DTD SVG 20010904//EN"
 "http://www.w3.org/TR/2001/REC-SVG-20010904/DTD/svg10.dtd">
<svg version="1.0" xmlns="http://www.w3.org/2000/svg"
 width="512.000000pt" height="512.000000pt" viewBox="0 0 512.000000 512.000000"
 preserveAspectRatio="xMidYMid meet">

<g transform="translate(0.000000,512.000000) scale(0.100000,-0.100000)"
fill="#000000" stroke="none">
<path d="M872 4941 c-213 -53 -396 -200 -493 -396 -77 -158 -73 -104 -79
-1021 l-5 -821 -54 -49 c-69 -62 -142 -166 -179 -257 -63 -151 -62 -126 -62
-1232 l0 -1005 450 0 450 0 0 295 0 295 1660 0 1660 0 0 -295 0 -295 450 0
450 0 0 1005 c0 878 -2 1016 -16 1082 -33 163 -101 284 -225 404 l-78 76 -3
809 c-4 905 0 851 -77 1009 -76 154 -196 270 -356 345 -158 75 -40 70 -1822
69 -1503 0 -1602 -2 -1671 -18z m3361 -318 c80 -38 173 -122 210 -191 57 -104
57 -111 56 -797 l0 -630 -19 71 c-58 223 -226 389 -446 440 -55 12 -153 14
-612 12 -545 -3 -547 -3 -612 -26 -79 -29 -161 -78 -218 -132 l-43 -40 -42 41
c-59 56 -125 97 -209 127 l-73 27 -545 3 c-605 3 -625 2 -748 -61 -156 -79
-267 -218 -312 -391 l-19 -71 0 630 c-1 686 -1 693 56 797 51 94 179 193 280
217 22 5 726 8 1633 8 l1595 -2 68 -32z m-2008 -1421 c107 -51 166 -140 173
-264 l5 -78 -753 0 -753 0 5 78 c8 128 65 214 178 266 l55 26 515 0 515 0 60
-28z m1800 0 c107 -51 166 -140 173 -264 l5 -78 -753 0 -753 0 5 78 c8 128 65
214 178 266 l55 26 515 0 515 0 60 -28z m421 -653 c125 -23 257 -118 318 -228
49 -90 56 -144 56 -413 l0 -248 -2260 0 -2260 0 0 248 c0 190 4 261 15 307 44
168 185 301 355 334 68 13 3702 14 3776 0z m374 -1344 l0 -155 -2260 0 -2260
0 0 155 0 155 2260 0 2260 0 0 -155z m-4220 -600 l0 -145 -150 0 -150 0 0 145
0 145 150 0 150 0 0 -145z m4220 0 l0 -145 -150 0 -150 0 0 145 0 145 150 0
150 0 0 -145z"/>
</g>
</svg>
