<?xml version="1.0" standalone="no"?>
<!DOCTYPE svg PUBLIC "-//W3C//DTD SVG 20010904//EN"
 "http://www.w3.org/TR/2001/REC-SVG-20010904/DTD/svg10.dtd">
<svg version="1.0" xmlns="http://www.w3.org/2000/svg"
 width="512.000000pt" height="512.000000pt" viewBox="0 0 512.000000 512.000000"
 preserveAspectRatio="xMidYMid meet">

<g transform="translate(0.000000,512.000000) scale(0.100000,-0.100000)"
fill="#FF0000" stroke="none">
<path d="M1199 4816 c-298 -53 -528 -173 -744 -390 -137 -138 -211 -243 -290
-409 -105 -223 -144 -389 -152 -650 -6 -196 4 -301 43 -459 121 -485 443 -915
1164 -1555 376 -333 1171 -1008 1215 -1031 67 -36 177 -37 245 -4 40 19 837
696 1221 1036 718 636 1042 1070 1163 1554 39 158 49 263 43 459 -8 261 -47
427 -152 650 -79 166 -153 271 -290 409 -168 168 -325 267 -538 338 -155 51
-227 61 -442 61 -184 -1 -208 -3 -301 -27 -175 -47 -328 -119 -470 -223 -90
-66 -239 -212 -303 -297 -24 -32 -47 -58 -51 -58 -4 0 -27 26 -51 58 -64 85
-213 231 -303 297 -140 103 -294 176 -465 221 -82 22 -123 26 -281 29 -126 3
-209 0 -261 -9z"/>
</g>
</svg>
