<svg width="60" height="60" viewBox="0 0 60 60" fill="none" xmlns="http://www.w3.org/2000/svg">
<path d="M20.0625 3.28125C15.2578 3.69141 10.875 6.48047 8.41406 10.7109C7.79297 11.7773 7.19531 13.2539 6.83203 14.6484C6.43359 16.1719 6.32813 19.0078 6.60938 20.625C7.125 23.5664 8.46094 26.2617 10.4883 28.4531C10.9102 28.8984 11.25 29.2969 11.25 29.332C11.25 29.3555 10.8398 29.625 10.3359 29.918C5.48438 32.7305 1.80469 37.8398 0.539064 43.4883C0.0703137 45.5859 -0.0234363 47.0273 0.0234387 51.4102L0.0585949 55.4062L0.421876 55.8633C0.621095 56.1094 0.960939 56.4141 1.18359 56.543C1.58203 56.7773 1.79297 56.7773 30 56.7773C58.207 56.7773 58.418 56.7773 58.8164 56.543C59.0391 56.4141 59.3789 56.1094 59.5781 55.8633L59.9414 55.4062L59.9766 51.4102C60.0234 47.0273 59.9297 45.5859 59.4609 43.4883C58.1953 37.8398 54.5156 32.7305 49.6641 29.918C49.1602 29.625 48.75 29.3555 48.75 29.3203C48.75 29.2969 49.0547 28.9453 49.4297 28.5469C51.3633 26.4727 52.6758 24 53.2852 21.2695C53.5664 20.0039 53.6133 17.168 53.3906 15.7617C52.1367 8.13281 45.2578 2.71875 37.5352 3.29297C35.0156 3.48047 32.4375 4.33594 30.5859 5.57812C30.3633 5.73047 30.1172 5.85938 30.0352 5.85938C29.9648 5.85938 29.4609 5.60156 28.9336 5.27344C26.4258 3.75 23.168 3.02344 20.0625 3.28125ZM23.1211 7.67578C27.2344 8.39062 30.4922 11.2734 31.7109 15.293C32.0039 16.2539 32.0273 16.5234 32.0391 18.2227C32.0391 19.9453 32.0156 20.1797 31.7109 21.1523C29.3438 28.8867 20.0273 31.4648 14.1445 26.0156C12.0117 24.0469 10.7813 21.2461 10.7695 18.3281C10.7578 16.9102 10.9102 15.9023 11.2734 14.8242C12.75 10.5 16.7461 7.59375 21.3398 7.51172C21.7734 7.51172 22.5703 7.58203 23.1211 7.67578ZM41.1914 7.85156C45.1289 8.84766 48.2109 12.082 49.0547 16.1016C49.2891 17.1914 49.2773 19.3242 49.0313 20.4023C48.4219 23.0742 47.0156 25.2539 44.8477 26.8711C44.0273 27.4805 42.2695 28.3125 41.1914 28.6055C39.8672 28.9688 37.3711 28.9688 36.0703 28.6172C35.2031 28.3828 33.5625 27.7266 33.3633 27.5391C33.3047 27.4922 33.5508 27.0117 33.9023 26.4727C35.625 23.8242 36.3633 21.375 36.3633 18.2812C36.375 15.1758 35.6133 12.5977 33.9375 10.0195C33.5742 9.46875 33.2812 8.98828 33.2812 8.96484C33.2812 8.70703 35.918 7.79297 37.1484 7.61719C38.2383 7.46484 40.1016 7.57031 41.1914 7.85156ZM16.5703 32.3906C18.0703 32.9062 19.6992 33.1758 21.375 33.1758C23.1328 33.1758 24.3984 32.9766 26.0859 32.4492L27.2695 32.0742L28.4297 32.625C30.668 33.6914 32.25 34.8164 33.8789 36.5273C35.9766 38.7305 37.3477 41.2734 38.1094 44.4141C38.4492 45.8203 38.4609 45.9961 38.5195 49.1953L38.5781 52.5H21.457H4.33594V49.5586C4.33594 46.125 4.47656 44.9414 5.15625 42.8906C6.48047 38.8359 9.31641 35.3789 12.9961 33.3164C13.7813 32.8711 15.4453 32.1094 15.6328 32.1094C15.6914 32.1094 16.1133 32.2383 16.5703 32.3906ZM45.9141 32.7539C47.707 33.6094 49.2422 34.6875 50.6953 36.1406C52.6875 38.1445 53.9766 40.2305 54.8438 42.8906C55.5234 44.9414 55.6641 46.125 55.6641 49.5586V52.5H49.3008H42.9258L42.8555 49.3125C42.7852 46.0664 42.6562 44.8594 42.1758 42.9492C41.3555 39.6445 39.6797 36.5039 37.3359 33.8906C36.9727 33.4922 36.6797 33.1406 36.6797 33.1289C36.6797 33.1172 37.418 33.1172 38.3203 33.1406C40.1484 33.1875 41.7891 32.9414 43.3008 32.4141C43.7695 32.2383 44.2617 32.1445 44.4609 32.168C44.6484 32.2031 45.3047 32.4609 45.9141 32.7539Z" fill="black"/>
</svg>
