<?xml version="1.0" standalone="no"?>
<!DOCTYPE svg PUBLIC "-//W3C//DTD SVG 20010904//EN"
 "http://www.w3.org/TR/2001/REC-SVG-20010904/DTD/svg10.dtd">
<svg version="1.0" xmlns="http://www.w3.org/2000/svg"
 width="100.000000pt" height="160.000000pt" viewBox="0 0 100.000000 160.000000"
 preserveAspectRatio="xMidYMid meet">

<g transform="translate(0.000000,160.000000) scale(0.100000,-0.100000)"
fill="#000000" stroke="none">
<path d="M376 1579 c-185 -44 -340 -218 -368 -414 -21 -150 -11 -180 193 -580
98 -192 204 -401 237 -463 l59 -114 75 144 c206 393 388 759 402 807 21 71 20
202 0 272 -65 219 -254 361 -478 358 -44 -1 -99 -5 -120 -10z m308 -88 c96
-47 168 -118 213 -208 33 -67 38 -86 41 -168 7 -147 16 -125 -345 -823 l-95
-184 -65 124 c-267 510 -361 704 -373 776 -33 180 52 368 206 458 91 53 139
65 251 61 90 -3 109 -7 167 -36z"/>
<path d="M410 1390 c0 -33 -7 -47 -38 -78 -31 -31 -51 -41 -100 -51 -33 -6
-71 -9 -84 -6 -19 5 -24 2 -24 -14 0 -13 9 -21 31 -26 29 -7 29 -7 6 -14 -13
-4 -25 -14 -27 -24 -4 -27 36 -21 89 13 55 35 57 35 57 14 0 -9 -9 -18 -20
-21 -23 -6 -27 -43 -5 -43 13 0 15 -26 15 -170 l0 -170 205 0 205 0 0 170 c0
107 4 170 10 170 6 0 10 9 10 20 0 11 -7 20 -15 20 -8 0 -17 14 -21 35 -9 51
-59 114 -107 136 -24 10 -65 19 -94 19 -52 0 -53 1 -53 30 0 23 -4 30 -20 30
-17 0 -20 -7 -20 -40z m260 -401 l0 -150 -42 3 -43 3 -5 65 c-6 74 -12 87 -47
101 -31 12 -78 -11 -87 -43 -3 -13 -6 -47 -6 -76 l0 -53 -42 3 -43 3 -3 148
-3 147 161 0 160 0 0 -151z m-140 -59 c-6 -4 -10 -20 -8 -36 2 -20 -1 -29 -12
-29 -11 0 -14 9 -12 29 2 16 -2 32 -8 36 -6 4 3 7 20 7 17 0 26 -3 20 -7z"/>
</g>
</svg>
