 <svg version="1.0" xmlns="http://www.w3.org/2000/svg"  width="477.000000pt" height="470.000000pt" viewBox="0 0 477.000000 470.000000"  preserveAspectRatio="xMidYMid meet">  <g transform="translate(0.000000,470.000000) scale(0.100000,-0.100000)" fill="#ff0000" stroke="none"> <path d="M2086 4689 c-212 -16 -535 -92 -711 -168 -185 -78 -464 -247 -578 -351 -29 -25 -70 -61 -93 -80 -60 -51 -210 -221 -282 -321 -238 -329 -381 -725 -412 -1144 -36 -485 118 -1017 412 -1424 72 -100 222 -270 282 -321 23 -19 64 -55 93 -80 114 -104 393 -273 578 -351 99 -43 355 -115 488 -139 257 -45 517 -45 774 0 133 24 389 96 488 139 185 78 464 247 578 351 29 25 70 61 93 80 60 51 210 221 282 321 238 329 381 725 412 1144 36 485 -118 1017 -412 1424 -72 100 -222 270 -282 321 -23 19 -64 55 -93 80 -114 104 -393 273 -578 351 -99 43 -355 115 -488 139 -107 19 -348 42 -412 39 -16 -1 -79 -6 -139 -10z"/> </g> </svg> 