<?xml version="1.0" encoding="UTF-8"?>
<!DOCTYPE svg PUBLIC "-//W3C//DTD SVG 1.1//EN" "http://www.w3.org/Graphics/SVG/1.1/DTD/svg11.dtd">
<svg xmlns="http://www.w3.org/2000/svg" version="1.1" width="512px" height="512px" style="shape-rendering:geometricPrecision; text-rendering:geometricPrecision; image-rendering:optimizeQuality; fill-rule:evenodd; clip-rule:evenodd" xmlns:xlink="http://www.w3.org/1999/xlink">
<g><path style="opacity:0.974" fill="#5f5647" d="M 399.5,107.5 C 423.856,108.019 439.356,120.019 446,143.5C 449.027,157.323 447.694,170.656 442,183.5C 374.861,251.639 307.361,319.473 239.5,387C 230.904,394.965 220.904,400.298 209.5,403C 197.832,403.832 187.498,400.499 178.5,393C 141.363,358.196 105.196,322.363 70,285.5C 63.8145,273.913 61.8145,261.58 64,248.5C 71.7245,215.407 91.8912,203.241 124.5,212C 130.427,214.935 136.094,218.268 141.5,222C 162.972,242.471 184.138,263.305 205,284.5C 257.167,232.333 309.333,180.167 361.5,128C 372.383,117.727 385.05,110.894 399.5,107.5 Z"/></g>
<g><path style="opacity:1" fill="#65E3FF" d="M 432.5,143.5 C 431.955,145.593 431.122,147.593 430,149.5C 364.167,215.333 298.333,281.167 232.5,347C 225.934,353.451 218.268,358.117 209.5,361C 204.266,361.977 199.266,361.31 194.5,359C 187.216,354.05 180.216,348.717 173.5,343C 143,312.5 112.5,282 82,251.5C 80.295,249.423 79.1283,247.09 78.5,244.5C 84.9276,224.453 98.261,217.287 118.5,223C 124.834,226.165 130.834,229.831 136.5,234C 159.333,256.833 182.167,279.667 205,302.5C 262.194,244.972 319.694,187.806 377.5,131C 382.51,127.493 387.843,124.493 393.5,122C 413.206,117.184 426.206,124.35 432.5,143.5 Z"/></g>
<g><path style="opacity:1" fill="#65E3FF" d="M 432.5,143.5 C 433.776,145.562 434.61,147.896 435,150.5C 437.114,161.401 435.114,171.401 429,180.5C 364.5,245 300,309.5 235.5,374C 228.499,380.834 220.499,386.167 211.5,390C 206.064,391.918 200.731,391.584 195.5,389C 189.892,385.724 184.558,382.057 179.5,378C 146.333,344.833 113.167,311.667 80,278.5C 75.7257,269.638 74.3924,260.305 76,250.5C 76.2401,248.148 77.0735,246.148 78.5,244.5C 79.1283,247.09 80.295,249.423 82,251.5C 112.5,282 143,312.5 173.5,343C 180.216,348.717 187.216,354.05 194.5,359C 199.266,361.31 204.266,361.977 209.5,361C 218.268,358.117 225.934,353.451 232.5,347C 298.333,281.167 364.167,215.333 430,149.5C 431.122,147.593 431.955,145.593 432.5,143.5 Z"/></g>
</svg>
