<?xml version="1.0" standalone="no"?>
<!DOCTYPE svg PUBLIC "-//W3C//DTD SVG 20010904//EN"
 "http://www.w3.org/TR/2001/REC-SVG-20010904/DTD/svg10.dtd">
<svg version="1.0" xmlns="http://www.w3.org/2000/svg"
 width="900.000000pt" height="800.000000pt" viewBox="0 0 900.000000 800.000000"
 preserveAspectRatio="xMidYMid meet">

<g transform="translate(0.000000,800.000000) scale(0.100000,-0.100000)"
fill="red" stroke="none">
<path d="M1356 7139 c-817 -823 -856 -864 -856 -898 0 -34 48 -84 1115 -1151
l1115 -1115 -1115 -1115 c-793 -793 -1115 -1121 -1115 -1137 0 -15 246 -265
855 -870 852 -844 856 -848 899 -851 l44 -3 1101 1101 1102 1101 24 -19 c24
-19 1470 -1438 1953 -1917 225 -223 267 -260 296 -263 31 -3 68 33 877 849
l844 851 3 47 c3 47 2 49 -60 106 -158 147 -2158 2119 -2156 2126 3 7 1429
1460 1910 1945 271 273 308 314 308 341 0 28 -88 119 -855 880 -804 797 -858
848 -894 851 -36 3 -42 -1 -166 -130 -71 -73 -568 -580 -1104 -1126 l-976
-992 -1125 1125 c-797 797 -1131 1125 -1147 1125 -15 0 -271 -251 -877 -861z"/>
</g>
</svg>
