<svg width="60" height="60" viewBox="0 0 60 60" fill="none" xmlns="http://www.w3.org/2000/svg">
<g clip-path="url(#clip0_37_13)">
<path d="M12.832 0.0820312C10.4766 0.398438 7.98047 2.19141 6.9375 4.33594C5.97656 6.28125 6.04688 5.32031 6 18.3633L5.96484 30H4.18359C2.56641 30 2.34375 30.0234 1.81641 30.2812C1.5 30.4219 1.03125 30.7617 0.796875 31.0312C0.386719 31.4883 0 32.4258 0 32.9883C0 33.5508 0.386719 34.4883 0.796875 34.9453C1.26562 35.4727 2.21484 35.9766 2.73047 35.9766C3.03516 35.9766 3.04688 36 3.04688 36.5508C3.04688 36.8789 3.12891 37.7578 3.22266 38.5195C3.76172 42.6445 5.13281 46.5703 7.00781 49.3945C8.10938 51.0586 9.30469 52.2188 10.8516 53.1562C11.0625 53.2852 11.0625 53.3086 10.875 53.5195C10.7695 53.6367 10.5352 54.0469 10.3594 54.4336C10.1016 54.9961 10.0312 55.3008 10.0312 56.0156C10.043 57.6211 10.8867 58.9219 12.3984 59.625C13.3359 60.0703 14.6484 60.0703 15.6094 59.625C16.418 59.25 17.2031 58.5 17.5781 57.7148C17.9883 56.8945 18.0469 55.5 17.7188 54.6445L17.4844 54.0234H30H42.5273L42.2812 54.5625C42.1172 54.9492 42.0469 55.3594 42.0469 55.9453C42.0469 57.5742 42.832 58.8516 44.2734 59.5547C44.9531 59.8945 45.1641 59.9414 45.9961 59.9414C46.8281 59.9414 47.0273 59.8945 47.7188 59.5547C49.8633 58.5 50.6133 55.8867 49.3359 53.8711C49.1484 53.5664 48.9844 53.2969 48.9844 53.2734C48.9844 53.25 49.3125 53.0391 49.7109 52.793C53.3672 50.5312 56.4258 43.8281 56.918 37.0078C56.9883 36 56.9883 35.9766 57.293 35.9766C57.7852 35.9766 58.7344 35.4609 59.2031 34.9453C59.6133 34.4883 60 33.5508 60 32.9883C60 32.4258 59.6133 31.4883 59.2031 31.0312C58.9688 30.7617 58.5117 30.4219 58.1836 30.2812L57.5977 30H32.7773H7.95703L7.99219 18.4219C8.02734 6.87891 8.02734 6.85547 8.28516 6.1875C9.08203 4.08984 10.6641 2.64844 12.6797 2.16797C13.1016 2.07422 13.9922 1.99219 14.7422 1.99219H16.0547V4.03125V6.07031L15.6211 6.22266C13.582 6.87891 12.2227 8.53125 12.0938 10.5C12.0469 11.2969 12.0586 11.4023 12.3047 11.6602L12.5742 11.9531H16.9922H21.4102L21.6445 11.6836C21.9961 11.2852 22.043 11.0625 21.9141 10.2422C21.6562 8.625 20.7188 7.33594 19.3008 6.63281C18.8438 6.41016 18.3633 6.19922 18.2578 6.16406C18.0703 6.10547 18.0469 5.88281 18.0469 3.57422C18.0469 0.890625 17.9648 0.386719 17.4844 0.128906C17.25 0.0117188 13.6641 -0.0234375 12.832 0.0820312ZM18.4453 8.41406C18.832 8.625 19.1836 8.95312 19.4297 9.32812L19.8281 9.90234L18.4102 9.9375C17.625 9.94922 16.3594 9.94922 15.5859 9.9375L14.168 9.90234L14.5195 9.35156C15.3398 8.0625 17.0625 7.64062 18.4453 8.41406ZM31.0547 32.9883V33.9844H16.8867H2.70703L2.39062 33.7031C1.93359 33.3164 1.93359 32.6602 2.39062 32.2734L2.70703 31.9922H16.8867H31.0547V32.9883ZM46.9922 37.5V43.0078H40.0195H33.0469V37.5V31.9922H40.0195H46.9922V37.5ZM57.6094 32.2734C57.8555 32.4844 57.9375 32.6484 57.9375 32.9883C57.9375 33.3281 57.8555 33.4922 57.6094 33.7031L57.293 33.9844H53.1328H48.9844V32.9883V31.9922H53.1328H57.293L57.6094 32.2734ZM31.0547 41.25C31.0898 44.1211 31.1484 46.5234 31.1953 46.5938C31.2422 46.6641 31.4414 46.793 31.6406 46.875C32.4023 47.1914 33.0469 46.5469 33.0469 45.4688V45H34.043H35.0391V45.6797C35.0391 46.207 35.0977 46.418 35.2734 46.6172C36.0352 47.4258 37.0312 46.7812 37.0312 45.4688V45H38.0273H39.0234V45.6797C39.0234 46.207 39.082 46.418 39.2578 46.6172C39.5742 46.957 39.9961 47.0508 40.3828 46.8516C40.8164 46.6523 41.0156 46.2422 41.0156 45.5508V45H42.0117H43.0078V45.6562C43.0078 46.2305 43.0547 46.3477 43.3594 46.6641C43.6641 46.957 43.7812 47.0039 44.0977 46.9453C44.6953 46.8281 45 46.3945 45 45.6328V45H45.9961H46.9922V45.6562C46.9922 46.2188 47.0391 46.3477 47.332 46.6523C47.543 46.8516 47.8008 46.9922 47.9883 46.9922C48.1758 46.9922 48.4336 46.8516 48.6445 46.6523L48.9844 46.3125V41.1445V35.9766H51.9727H54.9609V36.4336C54.9609 37.957 54.3516 41.1914 53.6602 43.2891C52.0664 48.1523 49.2773 51.5156 46.5117 51.9141C45.5156 52.0664 14.4844 52.0664 13.4883 51.9141C9.70312 51.375 6.17578 45.5391 5.21484 38.2852C5.12109 37.5234 5.03906 36.6914 5.03906 36.4336V35.9766L18.0234 36L30.9961 36.0352L31.0547 41.25ZM14.8594 54.1875C15.8789 54.7266 16.2891 56.0625 15.7148 57C14.9062 58.3008 12.8906 58.2422 12.2578 56.8945C11.7656 55.875 12.1523 54.7266 13.1836 54.1641C13.5117 53.9766 14.4844 53.9883 14.8594 54.1875ZM46.8516 54.1875C47.5312 54.5391 47.9531 55.207 47.9531 55.957C47.9531 57.0938 47.1211 57.9375 46.0078 57.9375C44.8828 57.9375 44.0391 57.1172 44.0391 56.0273C44.0391 55.2188 44.4375 54.5742 45.1758 54.1641C45.5039 53.9766 46.4766 53.9883 46.8516 54.1875Z" fill="black"/>
<path d="M16.8164 14.0391C16.6875 14.0625 16.4648 14.1914 16.3242 14.3321C16.0898 14.543 16.0547 14.6953 16.0547 15.4219C16.0547 16.4532 16.1016 16.6055 16.5352 16.8164C16.9922 17.0625 17.2852 17.0391 17.6367 16.7227C17.8828 16.5117 17.9648 16.3242 18.0117 15.7617C18.1172 14.5782 17.625 13.875 16.8164 14.0391Z" fill="black"/>
<path d="M20.8008 14.039C20.6719 14.0625 20.4492 14.1914 20.3086 14.332C20.0742 14.5429 20.0391 14.6836 20.0391 15.4687C20.0391 16.207 20.0859 16.4062 20.2734 16.6172C20.7773 17.1562 21.5508 17.0508 21.8789 16.4062C22.0781 16.0195 22.0664 15.082 21.8672 14.6015C21.6914 14.1914 21.2344 13.9453 20.8008 14.039Z" fill="black"/>
<path d="M12.3164 14.3437C11.9414 14.7422 11.8594 15.832 12.1523 16.4062C12.3984 16.8867 12.8555 17.0859 13.3359 16.9218C13.8281 16.7578 14.0859 16.1367 14.0156 15.3164C13.9453 14.4492 13.6406 14.0625 13.0078 14.0625C12.7031 14.0625 12.5039 14.1445 12.3164 14.3437Z" fill="black"/>
<path d="M12.5156 19.1719C11.9648 19.4648 11.7891 20.8711 12.2109 21.5625C12.4219 21.8906 12.9258 22.043 13.3359 21.9023C13.7344 21.7617 13.9336 21.457 14.0156 20.8242C14.1211 20.0859 13.8867 19.3711 13.4766 19.1602C13.0547 18.9492 12.9258 18.9492 12.5156 19.1719Z" fill="black"/>
<path d="M16.582 19.125C16.1484 19.3594 16.0547 19.5937 16.0547 20.5078C16.0547 21.293 16.0898 21.4336 16.3242 21.6445C16.6992 21.9844 16.9336 22.043 17.3555 21.8906C17.7891 21.7383 18.0469 21.2226 18.0469 20.5078C18.0469 19.3828 17.332 18.7031 16.582 19.125Z" fill="black"/>
<path d="M20.5664 19.125C20.1328 19.3828 20.0508 19.6172 20.0391 20.5195C20.0391 21.2929 20.0742 21.4336 20.3086 21.6445C20.6953 21.9961 20.9414 22.0429 21.375 21.8672C21.668 21.75 21.8086 21.5859 21.9141 21.2695C22.1133 20.6718 22.0078 19.6172 21.7266 19.3359C21.4453 19.0429 20.8711 18.9375 20.5664 19.125Z" fill="black"/>
<path d="M12.3398 24.3047C12.0352 24.5742 12.0117 24.6445 12.0117 25.4883C12.0117 26.332 12.0352 26.4023 12.3398 26.6719C12.5273 26.8242 12.8203 26.9531 13.0078 26.9531C13.1953 26.9531 13.4883 26.8242 13.6758 26.6719C13.9805 26.4023 14.0039 26.332 14.0039 25.4883C14.0039 24.6445 13.9805 24.5742 13.6758 24.3047C13.4883 24.1523 13.1953 24.0234 13.0078 24.0234C12.8203 24.0234 12.5273 24.1523 12.3398 24.3047Z" fill="black"/>
<path d="M16.3477 24.3164C16.0898 24.5625 16.0547 24.7031 16.0547 25.4883C16.0547 26.2734 16.0898 26.414 16.3477 26.6601C16.7344 27.0586 17.3203 27.0586 17.707 26.6484C17.9531 26.3906 17.9883 26.2383 17.9883 25.4883C17.9883 24.7383 17.9531 24.5859 17.707 24.3281C17.3203 23.918 16.7344 23.918 16.3477 24.3164Z" fill="black"/>
<path d="M20.332 24.3164C20.0742 24.5625 20.0391 24.7031 20.0391 25.4883C20.0391 26.2734 20.0742 26.414 20.332 26.6601C20.7188 27.0586 21.3047 27.0586 21.6914 26.6484C21.9375 26.3906 21.9727 26.2383 21.9727 25.4883C21.9727 24.7383 21.9375 24.5859 21.6914 24.3281C21.3047 23.918 20.7188 23.918 20.332 24.3164Z" fill="black"/>
</g>
<defs>
<clipPath id="clip0_37_13">
<rect width="60" height="60" fill="white"/>
</clipPath>
</defs>
</svg>
