<svg width="60" height="60" viewBox="0 0 60 60" fill="none" xmlns="http://www.w3.org/2000/svg">
<path d="M29.2734 3.90234C28.8398 4.08984 2.25 28.793 2.03906 29.2031C1.45312 30.3281 2.40234 31.875 3.67969 31.875C4.37109 31.875 4.79297 31.6172 6.15234 30.3398L7.4414 29.1211L7.5 40.4883C7.55859 51.7852 7.55859 51.8555 7.8164 52.4648C8.58984 54.375 9.9375 55.5938 11.8008 56.0742C12.8086 56.3438 47.1914 56.3438 48.1992 56.0742C50.0625 55.5938 51.4102 54.375 52.1836 52.4648C52.4414 51.8555 52.4414 51.7852 52.5 40.4883L52.5586 29.1211L53.6719 30.1641C55.3594 31.7461 55.4648 31.8164 56.25 31.8164C56.8008 31.8164 56.9883 31.7578 57.3633 31.4766C58.0664 30.9375 58.3008 30.0703 57.9727 29.2617C57.7852 28.8281 31.2656 4.13672 30.7383 3.90234C30.5508 3.82031 30.2227 3.76172 30 3.76172C29.7773 3.76172 29.4492 3.82031 29.2734 3.90234ZM39.4219 16.9219L48.75 25.5938L48.7266 38.4492C48.6914 51.2344 48.6914 51.3164 48.4453 51.6328C48.3164 51.8086 48.0586 52.0664 47.8828 52.1953C47.5781 52.4297 47.3906 52.4414 43.4648 52.4766L39.375 52.5117V45.6094C39.375 39.8789 39.3398 38.6133 39.1992 38.0508C38.6719 36.0234 37.1133 34.4531 35.0977 33.9258C34.0781 33.668 25.9219 33.668 24.9023 33.9258C22.8867 34.4531 21.3281 36.0234 20.8008 38.0508C20.6602 38.6133 20.625 39.8789 20.625 45.6094V52.5117L16.5352 52.4766C12.6094 52.4414 12.4219 52.4297 12.1172 52.1953C11.9414 52.0664 11.6836 51.8086 11.5547 51.6328C11.3086 51.3164 11.3086 51.2344 11.2734 38.4492L11.25 25.5938L20.5898 16.9102C25.7344 12.1289 29.9766 8.22656 30.0117 8.23828C30.0586 8.25 34.2891 12.1641 39.4219 16.9219ZM34.7578 37.8047C34.9336 37.9336 35.1914 38.1914 35.3203 38.3672C35.5664 38.6836 35.5664 38.8242 35.6016 45.5977L35.625 52.5H30H24.375V45.7734C24.375 41.2852 24.4219 38.9297 24.5039 38.707C24.5742 38.5312 24.7383 38.25 24.8789 38.0977C25.418 37.5117 25.5352 37.5 30.1406 37.5352C34.2773 37.5586 34.4531 37.5703 34.7578 37.8047Z" fill="black"/>
</svg>
