<?xml version="1.0" standalone="no"?>
<svg xmlns:xlink="http://www.w3.org/1999/xlink" id="wave" style="transform:rotate(0deg); transition: 0.3s" viewBox="0 0 1440 160" version="1.1" xmlns="http://www.w3.org/2000/svg"><defs><linearGradient id="sw-gradient-0" x1="0" x2="0" y1="1" y2="0"><stop stop-color="rgba(98, 112, 153, 1)" offset="0%"/><stop stop-color="rgba(98, 112, 153, 1)" offset="100%"/></linearGradient></defs><path style="transform:translate(0, 0px); opacity:1" fill="#515D5E" d="M0,96L120,101.3C240,107,480,117,720,101.3C960,85,1200,43,1440,40C1680,37,1920,75,2160,96C2400,117,2640,123,2880,122.7C3120,123,3360,117,3600,109.3C3840,101,4080,91,4320,93.3C4560,96,4800,112,5040,117.3C5280,123,5520,117,5760,117.3C6000,117,6240,123,6480,122.7C6720,123,6960,117,7200,114.7C7440,112,7680,112,7920,104C8160,96,8400,80,8640,77.3C8880,75,9120,85,9360,93.3C9600,101,9840,107,10080,106.7C10320,107,10560,101,10800,96C11040,91,11280,85,11520,90.7C11760,96,12000,112,12240,109.3C12480,107,12720,85,12960,74.7C13200,64,13440,64,13680,61.3C13920,59,14160,53,14400,56C14640,59,14880,69,15120,82.7C15360,96,15600,112,15840,117.3C16080,123,16320,117,16560,114.7C16800,112,17040,112,17160,112L17280,112L17280,160L17160,160C17040,160,16800,160,16560,160C16320,160,16080,160,15840,160C15600,160,15360,160,15120,160C14880,160,14640,160,14400,160C14160,160,13920,160,13680,160C13440,160,13200,160,12960,160C12720,160,12480,160,12240,160C12000,160,11760,160,11520,160C11280,160,11040,160,10800,160C10560,160,10320,160,10080,160C9840,160,9600,160,9360,160C9120,160,8880,160,8640,160C8400,160,8160,160,7920,160C7680,160,7440,160,7200,160C6960,160,6720,160,6480,160C6240,160,6000,160,5760,160C5520,160,5280,160,5040,160C4800,160,4560,160,4320,160C4080,160,3840,160,3600,160C3360,160,3120,160,2880,160C2640,160,2400,160,2160,160C1920,160,1680,160,1440,160C1200,160,960,160,720,160C480,160,240,160,120,160L0,160Z"/></svg>