<?xml version="1.0" standalone="no"?>
<!DOCTYPE svg PUBLIC "-//W3C//DTD SVG 20010904//EN"
 "http://www.w3.org/TR/2001/REC-SVG-20010904/DTD/svg10.dtd">
<svg version="1.0" xmlns="http://www.w3.org/2000/svg"
 width="152.000000pt" height="160.000000pt" viewBox="0 0 152.000000 160.000000"
 preserveAspectRatio="xMidYMid meet">

<g transform="translate(0.000000,160.000000) scale(0.100000,-0.100000)"
fill="#515D5E" stroke="none">
<path d="M670 1492 l0 -108 -56 -49 c-31 -26 -71 -69 -90 -94 -32 -45 -35 -47
-106 -58 -40 -7 -111 -19 -158 -28 -83 -15 -145 -13 -183 7 -25 13 -30 5 -16
-26 10 -20 10 -29 1 -38 -7 -7 -12 -15 -12 -18 0 -16 59 -31 119 -32 l66 0
-50 -24 c-29 -14 -69 -24 -94 -24 l-44 0 22 -24 c17 -18 20 -30 15 -51 l-7
-28 49 7 c65 10 112 32 213 100 46 31 88 56 92 56 10 0 12 -35 3 -67 -6 -20
-13 -23 -55 -23 l-49 0 0 -55 0 -55 40 0 40 0 2 -427 3 -428 513 -3 512 -2 0
430 0 430 35 0 35 0 0 55 0 55 -44 0 -43 0 -11 67 c-41 245 -274 430 -517 409
-38 -3 -80 -9 -92 -12 -23 -6 -23 -5 -23 80 l0 86 -55 0 -55 0 0 -108z m658
-1004 l2 -368 -115 0 -115 0 0 152 c0 143 -1 154 -25 194 -44 75 -145 105
-223 65 -85 -43 -102 -88 -102 -271 l0 -140 -110 0 -110 0 0 370 0 370 398 -2
397 -3 3 -367z m-390 -75 c11 -22 5 -43 -13 -43 -7 0 -15 6 -18 13 -5 16 3 47
14 47 4 0 12 -8 17 -17z m-40 -65 c4 -21 -27 -25 -46 -6 -20 20 -14 30 15 26
17 -2 29 -10 31 -20z m112 14 c0 -14 -23 -32 -42 -32 -18 0 -25 20 -11 33 9
10 53 9 53 -1z m-64 -69 c4 -21 15 -55 25 -75 24 -47 24 -52 -2 -45 -12 3 -22
0 -26 -9 -7 -19 -29 -18 -37 2 -4 10 -13 13 -26 9 -25 -8 -25 -4 -1 43 10 20
21 54 25 75 4 22 13 37 21 37 8 0 17 -15 21 -37z"/>
</g>
</svg>
